<svg width="60" height="80" viewBox="0 0 60 80" fill="none" xmlns="http://www.w3.org/2000/svg">
<path d="M10.441 57.7487L32.2004 45.186L59.559 60.9813L37.7996 73.544L10.441 57.7487Z" fill="black"/>
<path d="M32.2004 45.186V23.7026L10 36.5222L28.5743 47.2798L32.2004 45.186Z" fill="#37474F"/>
<path d="M32.2004 23.7026V45.186L41.4257 50.5125L60 39.7517L32.2004 23.7026Z" fill="#263238"/>
<path d="M10 36.5222V57.4949L37.7996 73.544V52.6062L10 36.5222Z" fill="#263238"/>
<path d="M37.7996 52.6062V73.544L60 60.7276V39.7517L37.7996 52.6062Z" fill="#37474F"/>
<path d="M37.7996 52.6062L38.2374 72.7446L54.3595 63.9824L37.7996 73.544V52.6062Z" fill="#455A64"/>
<path d="M40.4518 66.809C40.3726 66.8097 40.2948 66.7888 40.2265 66.7488C40.1271 66.6777 40.0483 66.5815 39.9982 66.47C39.948 66.3586 39.9283 66.2358 39.941 66.1143V64.2648V64.1284L40.0362 64.1442L41.4891 63.2908V65.3624C41.4859 65.6286 41.4195 65.8902 41.2954 66.1257C41.1713 66.3612 40.9931 66.5639 40.7753 66.717C40.6774 66.7755 40.5658 66.8073 40.4518 66.809ZM40.1758 64.4012V66.1206C40.1655 66.1996 40.1752 66.2799 40.204 66.3542C40.2328 66.4285 40.2798 66.4943 40.3407 66.5457C40.392 66.5685 40.4483 66.5772 40.5041 66.5711C40.5598 66.5649 40.6129 66.5442 40.658 66.5108C40.8395 66.3777 40.9879 66.2046 41.0919 66.0049C41.1959 65.8052 41.2525 65.5843 41.2575 65.3593V65.207H40.7182L40.6135 64.4805L40.1758 64.4012ZM40.9213 64.9754H41.2575V63.7064L40.3883 64.2172L40.8229 64.2965L40.9213 64.9754Z" fill="#E0E0E0"/>
<path d="M40.7151 68.2874C40.6839 68.2874 40.6541 68.275 40.6321 68.253C40.61 68.231 40.5977 68.2011 40.5977 68.17V66.6123C40.5985 66.5815 40.6111 66.5521 40.6329 66.5302C40.6548 66.5084 40.6842 66.4958 40.7151 66.495C40.7462 66.495 40.776 66.5073 40.7981 66.5293C40.8201 66.5513 40.8324 66.5812 40.8324 66.6123V68.17C40.8329 68.1855 40.8301 68.201 40.8244 68.2154C40.8186 68.2299 40.81 68.243 40.799 68.254C40.788 68.2649 40.7749 68.2736 40.7605 68.2793C40.746 68.2851 40.7306 68.2878 40.7151 68.2874Z" fill="#E0E0E0"/>
<path d="M40.0393 68.6776C40.0189 68.678 39.9986 68.673 39.9808 68.6629C39.9629 68.6529 39.9481 68.6382 39.9378 68.6205C39.9227 68.5939 39.9185 68.5624 39.9262 68.5328C39.9339 68.5031 39.9529 68.4777 39.9791 68.4618L41.3337 67.6783C41.3611 67.6632 41.3934 67.6594 41.4236 67.6677C41.4538 67.676 41.4795 67.6957 41.4955 67.7227C41.5104 67.7496 41.5141 67.7814 41.5058 67.8111C41.4974 67.8408 41.4778 67.866 41.4511 67.8813L40.0964 68.6617C40.0795 68.6727 40.0596 68.6783 40.0393 68.6776Z" fill="#E0E0E0"/>
<path d="M44.8645 65.9937C44.8202 65.9946 44.7764 65.9836 44.7376 65.962C44.6923 65.9314 44.6556 65.8897 44.6311 65.8408C44.6067 65.7919 44.5953 65.7375 44.5981 65.6828V65.3656C44.5953 65.3488 44.5962 65.3316 44.6007 65.3151C44.6052 65.2987 44.6133 65.2835 44.6243 65.2705C44.6353 65.2575 44.649 65.247 44.6645 65.2399C44.68 65.2327 44.6968 65.229 44.7138 65.229C44.7309 65.229 44.7477 65.2327 44.7632 65.2399C44.7787 65.247 44.7924 65.2575 44.8034 65.2705C44.8144 65.2835 44.8225 65.2987 44.827 65.3151C44.8315 65.3316 44.8324 65.3488 44.8296 65.3656V65.6828C44.828 65.6964 44.8292 65.7101 44.833 65.7232C44.8368 65.7362 44.8432 65.7484 44.8518 65.759C44.8518 65.759 44.8899 65.759 44.928 65.7399C45.0005 65.6733 45.0576 65.5917 45.0954 65.5007C45.1332 65.4098 45.1508 65.3117 45.1469 65.2133V63.1417C45.1441 63.1249 45.145 63.1077 45.1495 63.0913C45.1541 63.0749 45.1621 63.0596 45.1731 63.0466C45.1841 63.0336 45.1979 63.0232 45.2133 63.016C45.2288 63.0089 45.2456 63.0051 45.2627 63.0051C45.2797 63.0051 45.2965 63.0089 45.312 63.016C45.3275 63.0232 45.3412 63.0336 45.3522 63.0466C45.3632 63.0596 45.3713 63.0749 45.3758 63.0913C45.3804 63.1077 45.3813 63.1249 45.3785 63.1417V65.2133C45.3854 65.3507 45.3604 65.4878 45.3054 65.6139C45.2503 65.74 45.1667 65.8515 45.0612 65.9398C45.0025 65.977 44.934 65.9957 44.8645 65.9937Z" fill="#E0E0E0"/>
<path d="M43.6368 64.1823V63.9793C43.6652 63.4616 43.8149 62.9578 44.0739 62.5087C44.3329 62.0595 44.694 61.6776 45.1279 61.3938C45.283 61.2623 45.475 61.182 45.6775 61.1639C45.88 61.1457 46.0832 61.1906 46.2593 61.2923C46.4353 61.3941 46.5756 61.5477 46.661 61.7323C46.7464 61.9168 46.7727 62.1232 46.7363 62.3233V62.3931L43.6368 64.1823ZM45.8258 61.4191C45.6198 61.4277 45.4196 61.49 45.2452 61.6C44.875 61.8429 44.5616 62.1627 44.3262 62.5377C44.0907 62.9127 43.9389 63.3341 43.8811 63.7731L46.5015 62.2598C46.5114 62.1129 46.4837 61.9659 46.421 61.8327C46.3582 61.6995 46.2626 61.5844 46.143 61.4985C46.046 61.4448 45.9366 61.4174 45.8258 61.4191Z" fill="#E0E0E0"/>
<path d="M49.0521 63.6081C49.0215 63.6073 48.9925 63.5945 48.9711 63.5726C48.9498 63.5507 48.9379 63.5213 48.9379 63.4907V59.5379C48.9351 59.5211 48.936 59.5039 48.9405 59.4875C48.9451 59.471 48.9531 59.4558 48.9641 59.4428C48.9752 59.4298 48.9889 59.4193 49.0043 59.4122C49.0198 59.405 49.0366 59.4013 49.0537 59.4013C49.0707 59.4013 49.0876 59.405 49.103 59.4122C49.1185 59.4193 49.1322 59.4298 49.1432 59.4428C49.1542 59.4558 49.1623 59.471 49.1668 59.4875C49.1714 59.5039 49.1723 59.5211 49.1695 59.5379V63.5066C49.1656 63.5349 49.1516 63.5608 49.13 63.5795C49.1084 63.5982 49.0807 63.6083 49.0521 63.6081Z" fill="#E0E0E0"/>
<path d="M48.7126 60.4262C48.6969 60.4292 48.6808 60.4292 48.6651 60.4262C48.6371 60.4137 48.6152 60.3907 48.604 60.3623C48.5927 60.3338 48.593 60.3021 48.6048 60.2739L49.0204 59.3222L49.4835 59.8551C49.5052 59.8771 49.5174 59.9068 49.5174 59.9376C49.5174 59.9685 49.5052 59.9981 49.4835 60.0201C49.4612 60.0411 49.4317 60.0527 49.401 60.0527C49.3704 60.0527 49.3409 60.0411 49.3186 60.0201L49.0997 59.7663L48.8332 60.3849C48.8192 60.4027 48.8004 60.416 48.779 60.4233C48.7576 60.4307 48.7346 60.4316 48.7126 60.4262Z" fill="#E0E0E0"/>
<path d="M50.1307 62.9926C50.1001 62.9918 50.0711 62.9791 50.0497 62.9572C50.0284 62.9352 50.0165 62.9059 50.0165 62.8753V58.9034C50.0137 58.8866 50.0146 58.8694 50.0191 58.853C50.0237 58.8365 50.0317 58.8213 50.0427 58.8083C50.0538 58.7953 50.0675 58.7849 50.0829 58.7777C50.0984 58.7705 50.1152 58.7668 50.1323 58.7668C50.1493 58.7668 50.1662 58.7705 50.1816 58.7777C50.1971 58.7849 50.2108 58.7953 50.2218 58.8083C50.2328 58.8213 50.2409 58.8365 50.2454 58.853C50.25 58.8694 50.2509 58.8866 50.2481 58.9034V62.8721C50.2485 62.8878 50.2458 62.9034 50.2401 62.918C50.2344 62.9326 50.2258 62.9459 50.2148 62.9571C50.2039 62.9684 50.1908 62.9773 50.1764 62.9834C50.1619 62.9895 50.1464 62.9927 50.1307 62.9926Z" fill="#E0E0E0"/>
<path d="M49.7913 59.8107C49.7755 59.8137 49.7594 59.8137 49.7437 59.8107C49.7158 59.7982 49.6938 59.7753 49.6826 59.7468C49.6713 59.7184 49.6716 59.6867 49.6834 59.6585L50.099 58.7067L50.5621 59.2207C50.5795 59.2445 50.5871 59.2741 50.5837 59.3033C50.5802 59.3326 50.5659 59.3595 50.5435 59.3787C50.5211 59.3979 50.4923 59.408 50.4629 59.4069C50.4334 59.4058 50.4054 59.3937 50.3845 59.373L50.1656 59.1192L49.8991 59.7378C49.8903 59.7592 49.8754 59.7776 49.8562 59.7906C49.837 59.8036 49.8144 59.8106 49.7913 59.8107Z" fill="#E0E0E0"/>
<path d="M14.7554 51.4103L20.8147 54.8999C20.8948 54.952 20.9615 55.0222 21.0094 55.1049C21.0574 55.1875 21.0852 55.2803 21.0907 55.3757V59.5855C21.0907 59.9345 20.8432 60.074 20.545 59.9027L14.4921 56.4099C14.4128 56.358 14.3468 56.2881 14.2995 56.2061C14.2521 56.124 14.2246 56.0319 14.2193 55.9372V51.7243C14.2098 51.3785 14.4572 51.2358 14.7554 51.4103Z" fill="#FAFAFA"/>
<path d="M14.6063 52.0638L14.8125 52.1843V55.9024L14.6063 55.785V52.0638Z" fill="#455A64"/>
<path d="M15.4438 52.5491L15.7991 52.7585V56.4766L15.4438 56.2672V52.5491Z" fill="#455A64"/>
<path d="M16.2845 53.0345L16.4907 53.1519V56.8699L16.2845 56.7526V53.0345Z" fill="#455A64"/>
<path d="M16.9158 53.393L17.3314 53.6373L17.3282 57.3553L16.9158 57.111V53.393Z" fill="#455A64"/>
<path d="M17.9627 54.0021L18.1689 54.1226V57.8407L17.9627 57.7201V54.0021Z" fill="#455A64"/>
<path d="M18.5655 54.3447L19.0096 54.6048V58.3261L18.5655 58.0628V54.3447Z" fill="#455A64"/>
<path d="M19.6409 54.9728L19.8471 55.0902V58.8083L19.6409 58.6909V54.9728Z" fill="#455A64"/>
<path d="M20.1199 55.2425L20.2246 55.3028V59.0208L20.1199 58.9637V55.2425Z" fill="#455A64"/>
<path d="M19.257 54.7698L19.3617 54.8269V58.5481L19.257 58.4879V54.7698Z" fill="#455A64"/>
<path d="M17.5693 53.78L17.6708 53.8371V57.5552L17.5693 57.4981V53.78Z" fill="#455A64"/>
<path d="M16.643 53.2471L16.7445 53.3073V57.0254L16.643 56.9651V53.2471Z" fill="#455A64"/>
<path d="M15.9768 52.8791L16.0815 52.9394V56.6574L15.9768 56.5971V52.8791Z" fill="#455A64"/>
<path d="M15.0758 52.3334L15.1773 52.3937V56.1117L15.0758 56.0515V52.3334Z" fill="#455A64"/>
<path d="M20.4816 55.455L20.6878 55.5756V59.2936L20.4816 59.1731V55.455Z" fill="#455A64"/>
<path d="M32.2004 23.7026L10 36.5222L37.7996 52.6062L60 39.7517L32.2004 23.7026Z" fill="#455A64"/>
<path opacity="0.1" d="M10 36.5222L37.7996 51.81L60 39.7517L37.7996 52.6062L10 36.5222Z" fill="white"/>
<path d="M19.2126 31.2021L47.0281 47.2608L50.4479 45.2844L22.6325 29.2258L19.2126 31.2021Z" fill="#C53F3F"/>
<path d="M50.4479 45.2812V49.6274L50.0355 49.3926L49.6041 50.135L49.1758 49.8812L48.7444 50.633L48.3161 50.3792L47.8847 51.1184L47.4564 50.8741L47.0281 51.6165V47.2608L50.4479 45.2812Z" fill="#C53F3F"/>
<path opacity="0.25" d="M50.4479 45.2812V49.6274L50.0355 49.3926L49.6041 50.135L49.1758 49.8812L48.7444 50.633L48.3161 50.3792L47.8847 51.1184L47.4564 50.8741L47.0281 51.6165V47.2608L50.4479 45.2812Z" fill="black"/>
<path opacity="0.1" d="M31.1249 25.0953L11.7638 36.2716L36.1246 50.3856L55.4857 39.1712L31.1249 25.0953Z" fill="black"/>
<path d="M15.447 36.8204L31.6293 27.4524L52.2023 39.3361L36.0199 48.6788L15.447 36.8204Z" fill="black"/>
<path d="M31.6293 25.4633V7L15.0663 16.5616L31.1027 25.8313L31.6293 25.4633Z" fill="#37474F"/>
<path d="M31.6293 7V25.4633L36.5973 28.3375L52.5798 19.0805L31.6293 7Z" fill="#263238"/>
<path d="M15.0663 16.5616V36.6016L36.0199 48.6788V28.6706L15.0663 16.5616Z" fill="#263238"/>
<path d="M36.0199 28.6706V48.6788L52.5798 39.1173V19.0805L36.0199 28.6706Z" fill="#37474F"/>
<path d="M36.0199 28.6706L36.3974 47.9904L50.2703 40.4497L36.0199 48.6788V28.6706Z" fill="#455A64"/>
<path d="M38.304 42.8829C38.2351 42.8838 38.1672 42.8663 38.1074 42.8321C38.0227 42.771 37.9556 42.6887 37.9127 42.5935C37.8699 42.4983 37.8528 42.3935 37.8631 42.2896V40.7035V40.5861H37.9424L39.2113 39.8533V41.6361C39.2087 41.8652 39.1515 42.0902 39.0445 42.2927C38.9374 42.4952 38.7837 42.6692 38.5959 42.8004C38.5078 42.8537 38.407 42.8822 38.304 42.8829ZM38.0629 40.8208V42.2992C38.0544 42.3678 38.0634 42.4375 38.0889 42.5018C38.1144 42.5661 38.1556 42.623 38.2089 42.6672C38.2525 42.6857 38.3002 42.6928 38.3474 42.6878C38.3946 42.6828 38.4397 42.6659 38.4785 42.6386C38.6349 42.5237 38.7628 42.3744 38.8525 42.2022C38.9421 42.0301 38.9911 41.8397 38.9956 41.6457V41.5156H38.5325L38.4405 40.8811L38.0629 40.8208ZM38.6974 41.3125H38.9893V40.2117L38.2406 40.6495L38.6118 40.7161L38.6974 41.3125Z" fill="#E0E0E0"/>
<path d="M38.5293 44.155C38.5161 44.1554 38.503 44.1532 38.4907 44.1485C38.4784 44.1437 38.4671 44.1365 38.4577 44.1274C38.4482 44.1182 38.4407 44.1072 38.4355 44.095C38.4304 44.0829 38.4278 44.0699 38.4278 44.0567V42.7243C38.4278 42.6973 38.4385 42.6715 38.4575 42.6525C38.4765 42.6334 38.5023 42.6227 38.5293 42.6227C38.5562 42.6227 38.582 42.6334 38.6011 42.6525C38.6201 42.6715 38.6308 42.6973 38.6308 42.7243V44.0662C38.6277 44.0909 38.6156 44.1135 38.5969 44.1299C38.5782 44.1463 38.5541 44.1552 38.5293 44.155Z" fill="#E0E0E0"/>
<path d="M37.9456 44.4913C37.928 44.4916 37.9107 44.487 37.8956 44.478C37.8805 44.469 37.8681 44.4561 37.8599 44.4405C37.8531 44.4293 37.8486 44.4169 37.8466 44.4039C37.8447 44.3909 37.8454 44.3777 37.8486 44.365C37.8519 44.3522 37.8576 44.3403 37.8656 44.3299C37.8735 44.3194 37.8834 44.3107 37.8948 44.3041L39.0622 43.6316C39.0848 43.6233 39.1096 43.6234 39.1322 43.6318C39.1547 43.6401 39.1736 43.6562 39.1854 43.6771C39.1972 43.6981 39.2012 43.7225 39.1966 43.7461C39.1921 43.7697 39.1793 43.791 39.1606 43.806L37.9963 44.4786C37.981 44.4876 37.9634 44.4921 37.9456 44.4913Z" fill="#E0E0E0"/>
<path d="M42.0919 42.1818C42.054 42.182 42.0168 42.1722 41.984 42.1532C41.9438 42.1279 41.9113 42.092 41.8901 42.0495C41.8688 42.007 41.8596 41.9595 41.8635 41.9121V41.6393C41.8608 41.6247 41.8615 41.6097 41.8653 41.5953C41.8691 41.581 41.876 41.5677 41.8855 41.5563C41.8951 41.5449 41.907 41.5357 41.9204 41.5294C41.9339 41.5232 41.9485 41.5199 41.9634 41.5199C41.9782 41.5199 41.9929 41.5232 42.0064 41.5294C42.0198 41.5357 42.0317 41.5449 42.0412 41.5563C42.0508 41.5677 42.0577 41.581 42.0615 41.5953C42.0653 41.6097 42.0659 41.6247 42.0633 41.6393V41.9121C42.0612 41.9369 42.0679 41.9617 42.0824 41.9819C42.1061 41.9836 42.1297 41.9768 42.149 41.9629C42.2112 41.9054 42.2602 41.835 42.2926 41.7567C42.3249 41.6783 42.3398 41.5939 42.3362 41.5092V39.7263C42.3335 39.7117 42.3342 39.6967 42.338 39.6824C42.3418 39.668 42.3487 39.6547 42.3582 39.6433C42.3678 39.6319 42.3797 39.6228 42.3931 39.6165C42.4066 39.6102 42.4212 39.607 42.4361 39.607C42.4509 39.607 42.4656 39.6102 42.479 39.6165C42.4925 39.6228 42.5044 39.6319 42.5139 39.6433C42.5235 39.6547 42.5304 39.668 42.5342 39.6824C42.538 39.6967 42.5386 39.7117 42.536 39.7263V41.5092C42.541 41.6299 42.5178 41.7501 42.4682 41.8602C42.4187 41.9703 42.3441 42.0674 42.2505 42.1437C42.2015 42.169 42.147 42.182 42.0919 42.1818Z" fill="#E0E0E0"/>
<path d="M41.0418 40.6241V40.4497C41.0679 40.0049 41.1976 39.5725 41.4207 39.1869C41.6438 38.8013 41.9541 38.4732 42.3266 38.229C42.4603 38.117 42.6252 38.0489 42.799 38.0338C42.9728 38.0187 43.1469 38.0574 43.2979 38.1447C43.4489 38.232 43.5695 38.3636 43.6431 38.5217C43.7168 38.6798 43.7401 38.8567 43.7098 39.0284V39.0855L41.0418 40.6241ZM42.9262 38.2448C42.7484 38.2517 42.5755 38.3053 42.425 38.4003C42.1066 38.6099 41.837 38.8855 41.6344 39.2084C41.4319 39.5314 41.3012 39.8941 41.2512 40.272L43.5068 38.9682C43.5146 38.8411 43.4895 38.7142 43.434 38.5997C43.3784 38.4852 43.2942 38.387 43.1895 38.3146C43.1095 38.2684 43.0186 38.2443 42.9262 38.2448Z" fill="#E0E0E0"/>
<path d="M45.702 40.1292C45.6757 40.1284 45.6507 40.1174 45.6323 40.0984C45.6139 40.0795 45.6037 40.0541 45.6037 40.0277V36.6111C45.6079 36.5876 45.6202 36.5664 45.6385 36.5511C45.6567 36.5358 45.6798 36.5274 45.7036 36.5274C45.7275 36.5274 45.7505 36.5358 45.7688 36.5511C45.7871 36.5664 45.7994 36.5876 45.8036 36.6111V40.0277C45.8036 40.0546 45.7929 40.0805 45.7738 40.0995C45.7548 40.1186 45.729 40.1292 45.702 40.1292Z" fill="#E0E0E0"/>
<path d="M45.4102 37.3915H45.3721C45.3596 37.387 45.3482 37.38 45.3387 37.3708C45.3291 37.3617 45.3215 37.3506 45.3164 37.3384C45.3113 37.3261 45.3089 37.3129 45.3092 37.2997C45.3095 37.2864 45.3126 37.2734 45.3182 37.2614L45.6767 36.4334L46.0732 36.8966C46.0824 36.9057 46.0897 36.9166 46.0947 36.9286C46.0997 36.9405 46.1023 36.9534 46.1023 36.9664C46.1023 36.9794 46.0997 36.9922 46.0947 37.0042C46.0897 37.0162 46.0824 37.027 46.0732 37.0362C46.0538 37.0542 46.0283 37.0643 46.0018 37.0643C45.9753 37.0643 45.9498 37.0542 45.9305 37.0362L45.7433 36.8173L45.5117 37.3502C45.5008 37.3664 45.4853 37.379 45.4672 37.3863C45.4491 37.3936 45.4293 37.3954 45.4102 37.3915Z" fill="#E0E0E0"/>
<path d="M46.6316 39.5995C46.6184 39.5995 46.6053 39.5968 46.5932 39.5917C46.581 39.5865 46.57 39.579 46.5609 39.5695C46.5517 39.5601 46.5445 39.5488 46.5398 39.5365C46.535 39.5242 46.5328 39.5111 46.5332 39.4979V36.0813C46.5374 36.0578 46.5497 36.0366 46.568 36.0213C46.5862 36.006 46.6093 35.9976 46.6331 35.9976C46.657 35.9976 46.68 36.006 46.6983 36.0213C46.7166 36.0366 46.7289 36.0578 46.7331 36.0813V39.4979C46.7331 39.5249 46.7224 39.5507 46.7033 39.5697C46.6843 39.5888 46.6585 39.5995 46.6316 39.5995Z" fill="#E0E0E0"/>
<path d="M46.3397 36.8617C46.3261 36.8649 46.312 36.8649 46.2985 36.8617C46.2865 36.8565 46.2758 36.849 46.2668 36.8397C46.2578 36.8303 46.2507 36.8193 46.246 36.8072C46.2413 36.7951 46.239 36.7822 46.2393 36.7692C46.2396 36.7563 46.2424 36.7435 46.2477 36.7316L46.603 35.9068L47.0027 36.3668C47.0119 36.3759 47.0192 36.3868 47.0242 36.3988C47.0292 36.4108 47.0318 36.4236 47.0318 36.4366C47.0318 36.4496 47.0292 36.4624 47.0242 36.4744C47.0192 36.4864 47.0119 36.4972 47.0027 36.5064C46.9833 36.5244 46.9578 36.5345 46.9313 36.5345C46.9049 36.5345 46.8793 36.5244 46.86 36.5064L46.6696 36.2875L46.4412 36.8204C46.4298 36.836 46.4142 36.8481 46.3963 36.8554C46.3784 36.8627 46.3588 36.8649 46.3397 36.8617Z" fill="#E0E0E0"/>
<path d="M31.6293 7L15.0663 16.5616L36.0199 28.6706L52.5798 19.0805L31.6293 7Z" fill="#455A64"/>
<path opacity="0.1" d="M15.0663 16.5616L35.9406 27.9568L52.5798 19.0805L36.0199 28.6706L15.0663 16.5616Z" fill="white"/>
<path d="M22.4294 12.3138L43.3957 24.4005L46.3365 22.7001L25.3734 10.6133L22.4294 12.3138Z" fill="#C53F3F"/>
<path d="M46.3365 22.697V26.4372L45.9812 26.2342L45.6132 26.8718L45.2421 26.6561L44.8741 27.3001L44.5029 27.0812L44.1349 27.722L43.7637 27.5095L43.3926 28.1503V24.4005L46.3365 22.697Z" fill="#C53F3F"/>
<path opacity="0.25" d="M46.3365 22.697V26.4372L45.9812 26.2342L45.6132 26.8718L45.2421 26.6561L44.8741 27.3001L44.5029 27.0812L44.1349 27.722L43.7637 27.5095L43.3926 28.1503V24.4005L46.3365 22.697Z" fill="black"/>
<path d="M18.4608 31.7319L24.52 35.2216C24.5997 35.2738 24.666 35.3442 24.7134 35.4269C24.7608 35.5095 24.788 35.6022 24.7928 35.6974V39.9072C24.7928 40.2561 24.5454 40.3957 24.244 40.2244L18.1848 36.7348C18.1055 36.6828 18.0395 36.613 17.9921 36.5309C17.9447 36.4488 17.9173 36.3567 17.9119 36.2621V32.046C17.9151 31.7002 18.1594 31.5575 18.4608 31.7319Z" fill="#FAFAFA"/>
<path d="M18.3117 32.3855L18.5179 32.506V36.224L18.3117 36.1035V32.3855Z" fill="#455A64"/>
<path d="M19.1492 32.8708L19.5045 33.0802V36.7982L19.1492 36.5889V32.8708Z" fill="#455A64"/>
<path d="M19.9898 33.3562L20.1961 33.4736V37.1916L19.9898 37.0742V33.3562Z" fill="#455A64"/>
<path d="M20.6211 33.7147L21.0336 33.9589V37.677L20.6211 37.4327V33.7147Z" fill="#455A64"/>
<path d="M21.668 34.3238L21.8742 34.4443V38.1624L21.668 38.0418V34.3238Z" fill="#455A64"/>
<path d="M22.2708 34.6664L22.7118 34.9265V38.6446L22.2708 38.3844V34.6664Z" fill="#455A64"/>
<path d="M23.3462 35.2914L23.5524 35.4119V39.1299L23.3462 39.0094V35.2914Z" fill="#455A64"/>
<path d="M23.8253 35.5642L23.9268 35.6245V39.3425L23.8253 39.2822V35.5642Z" fill="#455A64"/>
<path d="M22.9624 35.0915L23.0671 35.1486V38.8666L22.9624 38.8095V35.0915Z" fill="#455A64"/>
<path d="M21.2747 34.0985L21.3762 34.1588V37.8769L21.2715 37.8198L21.2747 34.0985Z" fill="#455A64"/>
<path d="M20.3483 33.5688L20.4498 33.629V37.3471L20.3483 37.2868V33.5688Z" fill="#455A64"/>
<path d="M19.6821 33.2008L19.7836 33.261V36.9791L19.6821 36.9188V33.2008Z" fill="#455A64"/>
<path d="M18.7812 32.6551L18.8827 32.7122V36.4302L18.7812 36.3731V32.6551Z" fill="#455A64"/>
<path d="M24.1869 35.7767L24.3931 35.8973L24.3899 39.6153L24.1869 39.4948V35.7767Z" fill="#455A64"/>
</svg>
