<svg width="80" height="49" viewBox="0 0 80 49" fill="none" xmlns="http://www.w3.org/2000/svg">
<path d="M51.8959 36.8592H48.556C46.8173 36.8592 45.4126 39.3798 45.4126 42.4899C45.4126 45.5999 46.8212 48.1185 48.556 48.1185H51.8959C53.6346 48.1185 55.0393 45.5979 55.0393 42.4899C55.0393 39.3818 53.6346 36.8592 51.8959 36.8592Z" fill="#263238"/>
<path opacity="0.05" d="M55.8252 36.8592H52.4853C50.7466 36.8592 49.3419 39.3798 49.3419 42.4899C49.3419 45.5999 50.7505 48.1185 52.4853 48.1185H55.8252C57.5639 48.1185 58.9686 45.5979 58.9686 42.4899C58.9686 39.3818 57.5639 36.8592 55.8252 36.8592Z" fill="white"/>
<path d="M78.9509 38.0655L20.4656 38.0242V0.666664H78.9509V38.0655Z" fill="#54C775"/>
<path opacity="0.3" d="M78.9509 0.666664H39.3123V38.0635H78.9509V0.666664Z" fill="#263238"/>
<path opacity="0.2" d="M39.3124 0.666664H20.4656V38.8022H39.3124V0.666664Z" fill="white"/>
<path opacity="0.1" d="M20.6071 2.40341H78.9509" stroke="white" stroke-width="2" stroke-linecap="round" stroke-linejoin="round"/>
<path opacity="0.1" d="M20.6071 4.0203H78.9509" stroke="white" stroke-width="2" stroke-linecap="round" stroke-linejoin="round"/>
<path opacity="0.1" d="M20.6071 5.63523H78.9509" stroke="white" stroke-width="2" stroke-linecap="round" stroke-linejoin="round"/>
<path opacity="0.1" d="M20.6071 7.25017H78.9509" stroke="white" stroke-width="2" stroke-linecap="round" stroke-linejoin="round"/>
<path opacity="0.1" d="M20.6071 8.86706H78.9509" stroke="white" stroke-width="2" stroke-linecap="round" stroke-linejoin="round"/>
<path opacity="0.1" d="M20.6071 10.482H78.9509" stroke="white" stroke-width="2" stroke-linecap="round" stroke-linejoin="round"/>
<path opacity="0.1" d="M20.6071 12.0969H78.9509" stroke="white" stroke-width="2" stroke-linecap="round" stroke-linejoin="round"/>
<path opacity="0.1" d="M20.6071 13.7119H78.9509" stroke="white" stroke-width="2" stroke-linecap="round" stroke-linejoin="round"/>
<path opacity="0.1" d="M20.6071 15.3288H78.9509" stroke="white" stroke-width="2" stroke-linecap="round" stroke-linejoin="round"/>
<path opacity="0.1" d="M20.6071 16.9437H78.9509" stroke="white" stroke-width="2" stroke-linecap="round" stroke-linejoin="round"/>
<path opacity="0.1" d="M20.6071 18.5586H78.9509" stroke="white" stroke-width="2" stroke-linecap="round" stroke-linejoin="round"/>
<path opacity="0.1" d="M20.6071 20.1755H78.9509" stroke="white" stroke-width="2" stroke-linecap="round" stroke-linejoin="round"/>
<path opacity="0.1" d="M20.6071 21.7904H78.9509" stroke="white" stroke-width="2" stroke-linecap="round" stroke-linejoin="round"/>
<path opacity="0.1" d="M20.6071 23.4054H78.9509" stroke="white" stroke-width="2" stroke-linecap="round" stroke-linejoin="round"/>
<path opacity="0.1" d="M20.6071 25.0203H78.9509" stroke="white" stroke-width="2" stroke-linecap="round" stroke-linejoin="round"/>
<path opacity="0.1" d="M20.6071 26.6372H78.9509" stroke="white" stroke-width="2" stroke-linecap="round" stroke-linejoin="round"/>
<path opacity="0.1" d="M20.6071 28.2521H78.9509" stroke="white" stroke-width="2" stroke-linecap="round" stroke-linejoin="round"/>
<path opacity="0.1" d="M20.6071 29.8671H78.9509" stroke="white" stroke-width="2" stroke-linecap="round" stroke-linejoin="round"/>
<path opacity="0.1" d="M20.6071 31.484H78.9509" stroke="white" stroke-width="2" stroke-linecap="round" stroke-linejoin="round"/>
<path opacity="0.1" d="M20.6071 33.0989H78.9509" stroke="white" stroke-width="2" stroke-linecap="round" stroke-linejoin="round"/>
<path opacity="0.1" d="M20.6071 34.7138H78.9509" stroke="white" stroke-width="2" stroke-linecap="round" stroke-linejoin="round"/>
<path opacity="0.1" d="M20.6071 36.3307H78.9509" stroke="white" stroke-width="2" stroke-linecap="round" stroke-linejoin="round"/>
<path d="M9.73279 37.594H6.64242C5.03142 37.594 3.7269 39.928 3.7269 42.8081C3.7269 45.6883 5.03142 48.0203 6.64242 48.0203H9.73279C11.3438 48.0203 12.6483 45.6863 12.6483 42.8081C12.6483 39.9299 11.3438 37.594 9.73279 37.594Z" fill="#263238"/>
<path opacity="0.05" d="M13.664 37.594H10.5717C8.96071 37.594 7.65619 39.928 7.65619 42.8081C7.65619 45.6883 8.96071 48.0203 10.5717 48.0203H13.664C15.2731 48.0203 16.5796 45.6863 16.5796 42.8081C16.5796 39.9299 15.2731 37.594 13.664 37.594Z" fill="white"/>
<path d="M8.01378 27.4113H6.55209C6.26525 27.4211 6.02949 27.1146 6.0236 26.7256C6.01968 26.6851 6.01968 26.6443 6.0236 26.6038L6.41653 22.1893C6.46564 21.7354 6.74658 21.4034 7.0845 21.3818H8.55994C8.84482 21.3818 9.08057 21.6824 9.08647 22.0714C9.08647 22.1107 9.08647 22.15 9.08647 22.1893L8.69354 26.6038C8.6346 27.0517 8.34383 27.3995 8.01378 27.4113Z" fill="#263238"/>
<path d="M9.47544 12.8297L6.65619 28.034L37.3497 40.0576L37.1356 10.093L30.3851 9.89652H11.8939C10.7819 9.8867 9.80157 11.0812 9.47544 12.8297Z" fill="#54C775"/>
<path d="M32.3124 15.2757C31.167 15.2246 30.1395 16.1637 29.8036 17.5645L27.4814 27.2934H23.0118L22.7682 40.1284H37.4696" fill="#54C775"/>
<path d="M9.9155 26.4761C9.4656 26.4761 9.10214 25.8985 9.10214 25.1873C9.10194 25.0633 9.11378 24.9396 9.13751 24.8179L10.8251 15.8906C10.9666 15.15 11.3988 14.6431 11.888 14.6451H28.0334C28.2082 14.6451 28.3517 14.869 28.3517 15.148C28.352 15.1975 28.3474 15.2468 28.3379 15.2953C27.9843 17.1342 26.835 23.2266 26.3949 25.5566C26.2927 26.1028 25.9744 26.4761 25.609 26.4761H9.9155Z" fill="#263238"/>
<path d="M24.7721 30.4329C24.7718 30.5893 24.7607 30.7456 24.7387 30.9005L24.6542 31.4761L24.6051 31.816L24.2436 34.2993L23.6542 38.3366L23.4912 39.4584H0.644409V38.3366L0.660126 34.2993L0.681737 31.8847V30.9024C0.485273 29.6058 1.11199 28.3484 2.06681 28.0871C2.17883 28.0565 2.29449 28.0413 2.41062 28.0419H23.0118C23.9843 28.0341 24.7721 29.1107 24.7721 30.4329Z" fill="#54C775"/>
<path d="M36.3851 15.8533V25.423C36.3851 26.0026 36.0884 26.4741 35.721 26.4761H30.1375C29.7701 26.4761 29.4735 26.0046 29.4735 25.423C29.4733 25.3282 29.4812 25.2336 29.497 25.1401L31.2181 15.3563C31.3006 14.8867 31.5756 14.5704 31.8821 14.5881L35.7446 14.8003C36.1021 14.8219 36.3851 15.2875 36.3851 15.8533Z" fill="#263238"/>
<path opacity="0.1" d="M19.334 14.6451H16.2495L12.7073 26.4761H15.7937L19.334 14.6451Z" fill="white"/>
<path opacity="0.1" d="M21.7348 14.6451H20.2613L16.721 26.4761H18.1926L21.7348 14.6451Z" fill="white"/>
<path d="M30.6915 34.2993V38.3366H0.648315L0.664032 34.2993H30.6915Z" fill="black"/>
<path d="M26.5069 34.2993H23.7289L18.7328 37.2344V38.3366H30.6915V34.2993H26.5069Z" fill="white"/>
<path d="M5.8271 37.2344V38.3366H0.648315L0.664032 34.2993H0.832991L5.8271 37.2344Z" fill="white"/>
<path opacity="0.3" d="M37.3635 40.1284L37.1356 10.093L33.0098 9.89654C31.9804 9.84546 30.7917 11.0419 30.4912 12.429L27.501 28.0341H26.336C25.0275 28.0341 24.1316 28.9869 24.1336 29.9987L24.1513 40.1323H37.3635" fill="#263238"/>
<path d="M24.6955 31.6176C24.6951 31.6548 24.6868 31.6916 24.6712 31.7254C24.6557 31.7593 24.6331 31.7895 24.6051 31.814C24.5571 31.8586 24.4938 31.8832 24.4283 31.8828H0.681732V31.3484H24.4342C24.4794 31.3485 24.5239 31.3601 24.5634 31.3821C24.6029 31.4041 24.6362 31.4358 24.6601 31.4741C24.685 31.5178 24.6972 31.5674 24.6955 31.6176Z" fill="white"/>
<path d="M4.87032 31.3504V31.8847H0.673859L0.675824 31.3504H4.87032Z" fill="#263238"/>
<path d="M24.6955 31.6176C24.6951 31.6548 24.6868 31.6916 24.6712 31.7254C24.6556 31.7593 24.6331 31.7895 24.6051 31.814C24.5571 31.8586 24.4938 31.8832 24.4283 31.8828H18.668V31.3484H24.4283C24.4735 31.3485 24.518 31.3601 24.5575 31.3821C24.597 31.4041 24.6303 31.4358 24.6542 31.4741C24.6811 31.5171 24.6954 31.5668 24.6955 31.6176Z" fill="#263238"/>
<path d="M80 39.036V39.1421C80 39.4026 79.8965 39.6525 79.7123 39.8367C79.5281 40.0209 79.2782 40.1244 79.0177 40.1244H0.982318C0.721791 40.1244 0.471935 40.0209 0.287714 39.8367C0.103494 39.6525 0 39.4026 0 39.1421V39.036C0 38.7755 0.103494 38.5256 0.287714 38.3414C0.471935 38.1572 0.721791 38.0537 0.982318 38.0537H79.0177C79.2782 38.0537 79.5281 38.1572 79.7123 38.3414C79.8965 38.5256 80 38.7755 80 39.036Z" fill="#263238"/>
<path d="M18.2868 38.8612H6.65619V39.4289H18.2868V38.8612Z" fill="black"/>
<path d="M3.56187 39.1441C3.56187 39.2081 3.54291 39.2707 3.50738 39.324C3.47184 39.3772 3.42133 39.4188 3.36221 39.4434C3.30309 39.468 3.23801 39.4745 3.17519 39.4621C3.11236 39.4498 3.0546 39.4191 3.00918 39.374C2.96377 39.3288 2.93274 39.2713 2.92001 39.2085C2.90729 39.1458 2.91342 39.0806 2.93766 39.0214C2.96189 38.9621 3.00314 38.9113 3.05619 38.8755C3.10924 38.8396 3.17172 38.8203 3.23574 38.8199C3.27848 38.8196 3.32084 38.8278 3.3604 38.844C3.39996 38.8602 3.43592 38.884 3.46623 38.9142C3.49654 38.9443 3.5206 38.9801 3.53701 39.0196C3.55343 39.059 3.56187 39.1013 3.56187 39.1441Z" fill="white"/>
<path d="M21.0648 39.1441C21.0648 39.2082 21.0458 39.2709 21.0102 39.3242C20.9746 39.3775 20.924 39.419 20.8647 39.4436C20.8055 39.4681 20.7403 39.4745 20.6774 39.462C20.6146 39.4495 20.5568 39.4186 20.5115 39.3733C20.4661 39.328 20.4353 39.2702 20.4227 39.2073C20.4102 39.1444 20.4167 39.0793 20.4412 39.02C20.4657 38.9608 20.5073 38.9102 20.5606 38.8745C20.6139 38.8389 20.6766 38.8199 20.7407 38.8199C20.7833 38.8199 20.8254 38.8283 20.8647 38.8446C20.9041 38.8609 20.9398 38.8848 20.9699 38.9149C21 38.945 21.0239 38.9807 21.0402 39.02C21.0565 39.0594 21.0648 39.1015 21.0648 39.1441Z" fill="white"/>
<path d="M30.4636 42.3621C30.4636 39.2364 31.8801 36.702 33.6287 36.702H30.2711C28.5246 36.702 27.108 39.2364 27.108 42.3621C27.108 45.4879 28.5246 48.0203 30.2711 48.0203H33.6287C31.8801 48.0262 30.4636 45.4938 30.4636 42.3621Z" fill="black"/>
<path opacity="0.7" d="M30.4636 42.3621C30.4636 39.2364 31.8801 36.702 33.6287 36.702H30.2711C28.5246 36.702 27.108 39.2364 27.108 42.3621C27.108 45.4879 28.5246 48.0203 30.2711 48.0203H33.6287C31.8801 48.0262 30.4636 45.4938 30.4636 42.3621Z" fill="#263238"/>
<path d="M33.6287 48.0282C35.3767 48.0282 36.7937 45.494 36.7937 42.368C36.7937 39.242 35.3767 36.7079 33.6287 36.7079C31.8807 36.7079 30.4637 39.242 30.4637 42.368C30.4637 45.494 31.8807 48.0282 33.6287 48.0282Z" fill="#263238"/>
<path d="M33.8821 46.7806C35.1212 46.7806 36.1257 44.805 36.1257 42.368C36.1257 39.931 35.1212 37.9555 33.8821 37.9555C32.643 37.9555 31.6385 39.931 31.6385 42.368C31.6385 44.805 32.643 46.7806 33.8821 46.7806Z" fill="white"/>
<path d="M33.6778 46.1873C34.8637 46.1873 35.8251 44.4774 35.8251 42.368C35.8251 40.2587 34.8637 38.5488 33.6778 38.5488C32.4918 38.5488 31.5304 40.2587 31.5304 42.368C31.5304 44.4774 32.4918 46.1873 33.6778 46.1873Z" fill="#263238"/>
<path d="M33.2063 45.1559C34.0722 45.1559 34.7741 43.9077 34.7741 42.368C34.7741 40.8284 34.0722 39.5802 33.2063 39.5802C32.3404 39.5802 31.6385 40.8284 31.6385 42.368C31.6385 43.9077 32.3404 45.1559 33.2063 45.1559Z" fill="black"/>
<path opacity="0.5" d="M80 39.036V39.1421C80 39.4026 79.8965 39.6525 79.7123 39.8367C79.528 40.0209 79.2782 40.1244 79.0177 40.1244H39.3123V38.0537H79.0177C79.2782 38.0537 79.528 38.1572 79.7123 38.3414C79.8965 38.5256 80 38.7755 80 39.036Z" fill="black"/>
<path d="M67.6601 42.3621C67.6601 39.2364 69.0766 36.702 70.8232 36.702H67.4676C65.7191 36.702 64.3026 39.2364 64.3026 42.3621C64.3026 45.4879 65.7191 48.0203 67.4676 48.0203H70.8193C69.0766 48.0262 67.6601 45.4938 67.6601 42.3621Z" fill="black"/>
<path opacity="0.7" d="M67.6601 42.3621C67.6601 39.2364 69.0766 36.702 70.8232 36.702H67.4676C65.7191 36.702 64.3026 39.2364 64.3026 42.3621C64.3026 45.4879 65.7191 48.0203 67.4676 48.0203H70.8193C69.0766 48.0262 67.6601 45.4938 67.6601 42.3621Z" fill="#263238"/>
<path d="M70.8232 48.0282C72.5712 48.0282 73.9882 45.494 73.9882 42.368C73.9882 39.242 72.5712 36.7079 70.8232 36.7079C69.0752 36.7079 67.6581 39.242 67.6581 42.368C67.6581 45.494 69.0752 48.0282 70.8232 48.0282Z" fill="#263238"/>
<path d="M71.0786 46.7806C72.3177 46.7806 73.3222 44.805 73.3222 42.368C73.3222 39.931 72.3177 37.9555 71.0786 37.9555C69.8395 37.9555 68.835 39.931 68.835 42.368C68.835 44.805 69.8395 46.7806 71.0786 46.7806Z" fill="white"/>
<path d="M70.8723 46.1873C72.0582 46.1873 73.0196 44.4774 73.0196 42.368C73.0196 40.2587 72.0582 38.5488 70.8723 38.5488C69.6863 38.5488 68.7249 40.2587 68.7249 42.368C68.7249 44.4774 69.6863 46.1873 70.8723 46.1873Z" fill="#263238"/>
<path d="M70.4008 45.1559C71.2666 45.1559 71.9686 43.9077 71.9686 42.368C71.9686 40.8284 71.2666 39.5802 70.4008 39.5802C69.5349 39.5802 68.833 40.8284 68.833 42.368C68.833 43.9077 69.5349 45.1559 70.4008 45.1559Z" fill="black"/>
</svg>
