<svg width="20" height="10" viewBox="0 0 20 10" fill="none" xmlns="http://www.w3.org/2000/svg">
<g clip-path="url(#clip0_5_256)">
<path d="M15.8178 0.0265961H2.02128C0.924202 0.0265961 0.0265961 0.924203 0.0265961 2.02128V7.34043C0.0265961 8.4375 0.924202 9.33511 2.02128 9.33511H15.8178C16.9149 9.33511 17.8125 8.4375 17.8125 7.34043V2.02128C17.8125 0.924203 16.9149 0.0265961 15.8178 0.0265961ZM16.6489 7.34043C16.6489 7.79754 16.2749 8.17154 15.8178 8.17154H2.02128C1.56416 8.17154 1.19016 7.79754 1.19016 7.34043V2.02128C1.19016 1.56416 1.56416 1.19016 2.02128 1.19016H15.8178C16.2749 1.19016 16.6489 1.56416 16.6489 2.02128V7.34043ZM18.6436 2.54488V6.81682C19.3085 6.81682 19.9734 5.66573 19.9734 4.68085C19.9734 3.69598 19.3085 2.54488 18.6436 2.54488Z" fill="black"/>
<path d="M4.89156 2.46875C4.89156 2.19836 4.67238 2 4.40198 2H2.36031C2.10142 2 1.89156 2.20987 1.89156 2.46875V6.53125C1.89156 6.79013 2.10142 7 2.36031 7L4.42281 7C4.68169 7 4.89156 6.79013 4.89156 6.53125V2.46875Z" fill="#DA0404"/>
</g>
<defs>
<clipPath id="clip0_5_256">
<rect width="20" height="9.3617" fill="white"/>
</clipPath>
</defs>
</svg>
