<svg width="20" height="10" viewBox="0 0 20 10" fill="none" xmlns="http://www.w3.org/2000/svg">
<g clip-path="url(#clip0_5_98)">
<path d="M15.8178 0.0265961H2.02128C0.924202 0.0265961 0.0265961 0.924203 0.0265961 2.02128V7.34043C0.0265961 8.4375 0.924202 9.33511 2.02128 9.33511H15.8178C16.9149 9.33511 17.8125 8.4375 17.8125 7.34043V2.02128C17.8125 0.924203 16.9149 0.0265961 15.8178 0.0265961ZM16.6489 7.34043C16.6489 7.79754 16.2749 8.17154 15.8178 8.17154H2.02128C1.56416 8.17154 1.19016 7.79754 1.19016 7.34043V2.02128C1.19016 1.56416 1.56416 1.19016 2.02128 1.19016H15.8178C16.2749 1.19016 16.6489 1.56416 16.6489 2.02128V7.34043ZM18.6436 2.54488V6.81682C19.3085 6.81682 19.9734 5.66573 19.9734 4.68085C19.9734 3.69598 19.3085 2.54488 18.6436 2.54488Z" fill="black"/>
<path d="M6.5 2H2.5C2.4006 2 2 2 2 2.46875V6.53125C2 6.5 2 7 2.5 7H6.5C6.5 7 7 7 7 6.53125V2.46875C7 2 6.5 2 6.5 2Z" fill="#16BA07"/>
<path d="M7.97294 7.57764C7.95594 7.57764 7.94315 7.57312 7.93466 7.56485C7.87509 7.54758 7.85385 7.51382 7.87084 7.46275L8.26648 5.12734H6.54359C6.50106 5.12734 6.47128 5.1103 6.45423 5.07626C6.42875 5.0425 6.43299 5.00423 6.46702 4.96142L9.12153 1.49015C9.15556 1.43908 9.19384 1.43085 9.23637 1.46461C9.27889 1.4731 9.30019 1.50741 9.30019 1.56671L8.90454 3.90218H10.4232C10.4658 3.90218 10.4956 3.91944 10.5126 3.9532C10.5211 3.98723 10.5211 4.02551 10.5126 4.06809L8.06229 7.53936C8.03675 7.56485 8.00697 7.57764 7.97294 7.57764Z" fill="black"/>
</g>
<defs>
<clipPath id="clip0_5_98">
<rect width="20" height="9.3617" fill="white"/>
</clipPath>
</defs>
</svg>
