<svg width="20" height="20" viewBox="0 0 20 20" fill="none" xmlns="http://www.w3.org/2000/svg">
<path d="M14.9492 2.51211H4.94727L2.97754 5.98867V17.4879H16.9191V5.98828L14.9492 2.51211ZM14.3574 3.52773L15.5398 5.61445H12.8711L12.3154 3.52773H14.3574ZM7.81914 6.63008H11.974V10.1693L9.89668 8.34121L7.81914 10.1693V6.63008ZM11.2645 3.52773L11.8207 5.61445H7.97305L8.52949 3.52773H11.2645ZM5.53926 3.52773H7.47773L6.92129 5.61445H4.35684L5.53926 3.52773ZM3.99316 16.4723V6.63008H6.80352V10.6553C6.80249 10.8087 6.8463 10.9591 6.92958 11.088C7.01285 11.2168 7.13196 11.3186 7.27227 11.3807C7.37612 11.4279 7.48884 11.4525 7.60293 11.4527C7.79554 11.4521 7.98126 11.3809 8.125 11.2527L9.89648 9.69414L11.6678 11.2527C11.7827 11.3539 11.9244 11.4197 12.0758 11.4424C12.2272 11.465 12.3819 11.4435 12.5214 11.3805C12.6609 11.3174 12.7792 11.2155 12.8623 11.0868C12.9453 10.9582 12.9894 10.8084 12.9895 10.6553V6.63008H15.9035V16.4723H3.99316Z" fill="black"/>
<path d="M4.93301 13.6801H9.17266V14.6957H4.93301V13.6801Z" fill="black"/>
</svg>
